<?xml version="1.0" standalone="no"?>
<!DOCTYPE svg PUBLIC "-//W3C//DTD SVG 20010904//EN"
 "http://www.w3.org/TR/2001/REC-SVG-20010904/DTD/svg10.dtd">
<svg version="1.0" xmlns="http://www.w3.org/2000/svg"
 width="70.000000pt" height="50.000000pt" viewBox="0 0 256.000000 226.000000"
 preserveAspectRatio="xMidYMid meet">

<g transform="translate(0.000000,226.000000) scale(0.100000,-0.100000)"
fill="#000000" stroke="none">
<path d="M748 2165 c-307 -58 -534 -248 -626 -523 -24 -70 -26 -91 -26 -242 0
-152 2 -171 27 -245 37 -110 90 -196 168 -270 77 -73 150 -116 251 -151 78
-27 234 -54 309 -54 l46 0 83 -217 c163 -428 145 -388 177 -391 28 -3 28 -3
172 353 79 195 146 354 148 351 2 -2 68 -161 147 -352 139 -339 144 -349 172
-352 l29 -2 219 612 c121 337 231 640 246 674 29 65 89 139 121 149 10 4 19
13 19 21 0 11 -22 14 -115 14 -64 0 -115 -4 -115 -9 0 -5 14 -24 31 -41 30
-29 31 -34 26 -88 -3 -39 -63 -218 -192 -572 -103 -283 -191 -522 -195 -530
-10 -17 0 -39 -170 372 l-122 296 67 184 c94 254 125 312 186 343 16 9 29 22
29 30 0 12 -20 15 -110 15 -82 0 -110 -3 -110 -13 0 -7 9 -18 20 -25 33 -20
42 -58 30 -116 -12 -56 -122 -366 -130 -366 -11 0 -163 387 -167 426 -4 34 -2
44 17 57 43 30 14 37 -146 37 -170 0 -180 -4 -119 -53 52 -42 79 -90 166 -301
l79 -189 -27 -46 c-39 -68 -124 -146 -195 -180 -117 -55 -95 -82 -240 294
-141 367 -151 404 -119 431 45 39 30 44 -139 44 -114 0 -160 -3 -160 -12 0 -6
18 -27 40 -46 23 -19 54 -61 71 -94 25 -50 259 -650 259 -665 0 -8 -82 7 -150
28 -98 31 -167 74 -252 160 -64 64 -85 94 -126 181 -73 150 -86 212 -86 398 0
118 4 171 18 220 58 213 211 368 407 415 151 35 344 12 467 -57 70 -39 172
-138 201 -196 37 -72 45 -55 38 80 -4 67 -11 126 -15 130 -15 15 -142 56 -227
73 -111 23 -311 28 -407 10z m600 -1611 c-62 -150 -115 -270 -119 -266 -3 4
-39 93 -79 197 -40 105 -74 195 -76 200 -3 6 26 16 67 23 80 14 212 55 247 78
15 10 22 24 22 47 0 17 3 43 7 57 6 23 8 22 25 -19 l18 -42 -112 -275z"/>
</g>
</svg>
