<?xml version="1.0" standalone="no"?>
<!DOCTYPE svg PUBLIC "-//W3C//DTD SVG 20010904//EN"
 "http://www.w3.org/TR/2001/REC-SVG-20010904/DTD/svg10.dtd">
<svg version="1.0" xmlns="http://www.w3.org/2000/svg"
 width="284.000000pt" height="225.000000pt" viewBox="0 0 284.000000 225.000000"
 preserveAspectRatio="xMidYMid meet">

<g transform="translate(0.000000,225.000000) scale(0.100000,-0.100000)"
fill="#000000" stroke="none">
<path d="M1073 2176 c-368 -70 -616 -328 -651 -674 -47 -462 224 -773 703
-809 l99 -8 116 -305 c115 -303 116 -305 146 -308 l30 -3 141 348 c78 191 145
348 149 348 3 0 70 -155 148 -345 139 -340 141 -345 171 -348 l30 -3 224 623
c123 343 235 646 249 673 34 69 68 112 103 130 16 9 29 22 29 31 0 12 -18 14
-117 12 -66 -2 -118 -7 -120 -13 -1 -5 10 -18 26 -27 37 -20 48 -69 32 -134
-22 -86 -384 -1075 -391 -1067 -4 4 -69 157 -143 339 l-137 331 64 174 c101
275 125 319 190 354 20 11 35 24 33 30 -2 6 -51 11 -115 13 -122 3 -132 -2
-86 -45 24 -22 26 -30 22 -82 -4 -54 -114 -381 -129 -381 -3 0 -35 73 -72 163
-108 264 -113 287 -77 309 11 7 20 18 20 25 0 10 -38 13 -160 13 -176 0 -186
-4 -125 -53 19 -15 46 -48 61 -73 31 -52 174 -392 174 -412 0 -22 -54 -94
-109 -145 -79 -74 -210 -129 -224 -94 -46 114 -229 598 -241 637 -20 69 -20
77 4 97 44 38 28 43 -140 43 -114 0 -160 -3 -160 -12 0 -6 17 -26 38 -43 21
-18 50 -55 64 -82 25 -44 258 -645 258 -663 0 -4 -33 -2 -72 6 -94 18 -217 79
-290 144 -104 93 -194 255 -229 415 -20 89 -18 324 4 405 60 227 211 378 424
426 107 23 263 15 355 -19 134 -49 232 -126 295 -234 13 -24 29 -43 34 -43 12
0 11 217 -1 240 -12 22 -91 53 -205 81 -105 26 -341 34 -442 15z m630 -1554
c-47 -114 -97 -238 -112 -276 l-28 -69 -36 94 c-20 52 -56 146 -81 209 -24 63
-42 118 -40 121 2 4 26 9 54 13 57 8 163 39 233 68 39 17 47 25 47 47 0 14 3
37 7 51 6 24 7 24 24 -14 l16 -38 -84 -206z"/>
<path d="M84 455 c-52 -52 12 -129 77 -95 10 6 19 15 19 21 0 5 -11 2 -25 -7
-14 -9 -32 -13 -44 -9 -24 7 -38 51 -24 74 13 21 59 26 81 9 13 -9 12 -7 -2
10 -25 29 -51 28 -82 -3z"/>
<path d="M248 414 c-15 -35 -23 -64 -18 -64 4 0 10 7 14 15 8 21 62 20 70 -1
4 -9 9 -15 11 -12 5 5 -33 106 -44 120 -3 4 -18 -22 -33 -58z m45 6 c4 -15 0
-20 -15 -20 -14 0 -18 5 -14 16 3 9 6 20 6 25 0 17 17 1 23 -21z"/>
<path d="M382 420 c-7 -34 -11 -64 -8 -67 3 -3 8 8 11 23 13 58 17 60 35 14
l17 -44 21 44 20 45 7 -42 c4 -24 12 -43 17 -43 6 0 7 7 4 16 -3 9 -9 33 -12
55 -9 53 -20 57 -34 12 -14 -43 -30 -65 -30 -42 0 7 -8 31 -18 53 l-17 39 -13
-63z"/>
<path d="M561 413 c1 -38 4 -56 6 -40 3 21 10 27 28 27 20 0 45 24 45 44 0 14
-34 36 -56 36 -23 0 -24 -2 -23 -67z m57 25 c-2 -15 -11 -24 -25 -26 -19 -3
-23 1 -23 22 0 21 5 26 26 26 21 0 25 -4 22 -22z"/>
<path d="M723 434 l-20 -49 -7 43 c-4 23 -11 42 -16 42 -4 0 -2 -25 6 -56 12
-52 24 -81 24 -57 0 6 7 28 16 49 l17 39 21 -50 22 -50 14 63 c7 34 10 65 7
69 -4 3 -9 -13 -13 -36 -4 -22 -10 -41 -13 -41 -4 0 -14 19 -22 42 l-15 41
-21 -49z"/>
<path d="M863 415 c0 -38 2 -53 4 -32 2 20 2 52 0 70 -2 17 -4 1 -4 -38z"/>
<path d="M940 465 c-18 -22 -6 -42 36 -60 31 -13 34 -17 24 -30 -15 -18 -41
-19 -59 -2 -11 10 -13 9 -9 -3 6 -19 55 -25 74 -9 23 19 16 38 -23 56 -20 10
-38 23 -40 30 -6 17 35 27 52 13 9 -8 15 -8 15 -2 0 23 -52 29 -70 7z"/>
<path d="M1070 415 l0 -65 38 2 c36 1 36 1 5 5 -27 4 -33 9 -33 28 0 19 6 24
33 28 l32 4 -32 1 c-26 2 -33 6 -33 22 0 16 7 20 30 20 17 0 30 5 30 10 0 6
-16 10 -35 10 l-35 0 0 -65z"/>
</g>
</svg>
