<?xml version="1.0" encoding="UTF-8"?>
<svg xmlns="http://www.w3.org/2000/svg" xmlns:xlink="http://www.w3.org/1999/xlink" width="100px" height="101px" viewBox="0 0 100 101" version="1.1">
<g id="surface1">
<path style=" stroke:none;fill-rule:nonzero;fill:rgb(0%,0%,0%);fill-opacity:1;" d="M 35.421875 5.546875 C 26.746094 7.203125 19.226562 11.546875 14.660156 17.550781 C 12.167969 20.863281 9.675781 26.160156 8.886719 29.925781 C 8.140625 33.488281 8.054688 40.191406 8.722656 43.878906 C 9.925781 50.582031 13.457031 56.542969 18.480469 60.308594 C 23.046875 63.789062 29.277344 66.105469 35.839844 66.851562 C 37.957031 67.097656 38.207031 67.222656 38.207031 68.09375 C 38.207031 69.914062 40.117188 75.585938 41.695312 78.441406 C 43.894531 82.371094 48.753906 87.132812 52.535156 89.078125 C 59.632812 92.761719 69.019531 94.046875 76.203125 92.347656 C 81.933594 90.984375 87 88.332031 90.738281 84.730469 L 93.855469 81.753906 L 93.855469 65.402344 L 88.039062 65.402344 C 84.632812 65.402344 82.226562 65.566406 82.226562 65.816406 C 82.226562 66.023438 82.890625 66.519531 83.679688 66.890625 C 86.210938 68.050781 86.542969 69.25 86.710938 76.910156 C 86.878906 83.65625 86.878906 83.699219 85.796875 85.230469 C 84.425781 87.175781 81.851562 89.078125 78.863281 90.320312 C 75.664062 91.605469 69.519531 91.644531 65.28125 90.320312 C 59.09375 88.375 52.949219 82.910156 49.5 76.246094 C 47.921875 73.140625 46.097656 68.421875 46.097656 67.347656 C 46.097656 67.015625 47.34375 66.644531 49.75 66.3125 C 53.570312 65.816406 57.765625 64.65625 61.089844 63.25 L 63 62.460938 L 63.496094 58.242188 C 63.789062 55.921875 64.121094 53.316406 64.246094 52.445312 C 64.578125 50.292969 63.703125 50.457031 62.707031 52.777344 C 60.050781 58.945312 54.027344 63.871094 47.839844 64.90625 C 45.722656 65.277344 45.679688 65.277344 45.347656 64.203125 C 44.726562 62.007812 45.058594 51.660156 45.847656 48.886719 C 48.007812 40.980469 53.238281 35.515625 60.589844 33.363281 C 63.539062 32.492188 69.890625 32.492188 73.253906 33.363281 C 78.695312 34.769531 84.136719 38.746094 87.085938 43.546875 C 87.914062 44.871094 88.746094 45.824219 88.910156 45.65625 C 89.121094 45.449219 89.160156 43.050781 88.996094 40.277344 C 88.703125 34.5625 89.160156 35.144531 83.804688 33.28125 C 76.578125 30.839844 66.15625 30.382812 60.007812 32.285156 C 53.988281 34.148438 49.832031 36.796875 45.722656 41.226562 C 41.113281 46.277344 38.332031 53.109375 37.914062 60.722656 L 37.667969 64.90625 L 35.546875 64.285156 C 32.351562 63.332031 28.199219 61.054688 25.621094 58.738281 C 21.34375 54.929688 17.609375 48.183594 16.15625 41.601562 C 15.324219 37.917969 15.40625 28.1875 16.320312 24.835938 C 18.8125 15.441406 25.082031 9.1875 33.929688 7.203125 C 38.371094 6.25 44.851562 6.582031 48.671875 7.988281 C 54.234375 10.015625 58.304688 13.203125 60.921875 17.675781 C 61.460938 18.667969 62.125 19.453125 62.332031 19.453125 C 62.832031 19.453125 62.789062 10.472656 62.292969 9.519531 C 61.792969 8.609375 58.511719 7.328125 53.777344 6.167969 C 49.417969 5.089844 39.617188 4.761719 35.421875 5.546875 Z M 35.421875 5.546875 "/>
</g>
</svg>
