<?xml version="1.0" standalone="no"?>
<!DOCTYPE svg PUBLIC "-//W3C//DTD SVG 20010904//EN"
 "http://www.w3.org/TR/2001/REC-SVG-20010904/DTD/svg10.dtd">
<svg version="1.0" xmlns="http://www.w3.org/2000/svg"
 width="45.000000pt" height="45.000000pt" viewBox="0 0 64.000000 64.000000"
 preserveAspectRatio="xMidYMid meet">

<g transform="translate(0.000000,64.000000) scale(0.100000,-0.100000)"
fill="#ffffff" stroke="none">
<path d="M227 596 c-90 -33 -165 -113 -188 -200 -15 -56 -6 -153 20 -204 91
-177 325 -216 465 -76 140 140 102 374 -77 466 -53 27 -166 34 -220 14z m208
-31 c50 -25 105 -79 130 -130 28 -55 28 -175 0 -230 -25 -50 -80 -105 -130
-130 -55 -28 -175 -28 -230 0 -123 61 -183 204 -140 335 21 63 96 141 157 164
57 20 160 16 213 -9z"/>
<path d="M172 467 c-20 -21 -22 -34 -22 -148 0 -118 1 -127 23 -147 21 -20 34
-22 148 -22 118 0 127 1 147 23 20 21 22 34 22 148 0 118 -1 127 -23 147 -21
20 -34 22 -148 22 -118 0 -127 -1 -147 -23z m282 -13 c23 -23 23 -245 0 -268
-23 -23 -245 -23 -268 0 -23 23 -23 245 0 268 23 23 245 23 268 0z"/>
<path d="M405 429 c-10 -15 1 -23 20 -15 9 3 13 10 10 16 -8 13 -22 13 -30 -1z"/>
<path d="M256 384 c-84 -85 40 -209 126 -127 59 57 20 153 -62 153 -27 0 -45
-7 -64 -26z m114 -14 c11 -11 20 -33 20 -50 0 -61 -77 -93 -120 -50 -43 43
-11 120 50 120 17 0 39 -9 50 -20z"/>
</g>
</svg>
