<?xml version="1.0" standalone="no"?>
<!DOCTYPE svg PUBLIC "-//W3C//DTD SVG 20010904//EN"
 "http://www.w3.org/TR/2001/REC-SVG-20010904/DTD/svg10.dtd">
<svg version="1.0" xmlns="http://www.w3.org/2000/svg"
 width="40.000000pt" height="40.000000pt" viewBox="0 0 64.000000 64.000000"
 preserveAspectRatio="xMidYMid meet">

<g transform="translate(0.000000,64.000000) scale(0.100000,-0.100000)"
fill="#ffffff" stroke="none">
<path d="M244 631 c-49 -12 -134 -63 -160 -94 -14 -17 -37 -53 -52 -81 -22
-43 -26 -64 -26 -136 -1 -78 2 -90 33 -148 38 -70 70 -100 145 -140 43 -22 64
-26 136 -26 72 0 93 4 136 26 75 40 107 70 145 140 31 58 34 70 33 148 0 72
-4 93 -26 136 -39 75 -70 107 -137 143 -65 34 -164 49 -227 32z m202 -35 c112
-52 174 -151 174 -276 0 -176 -124 -300 -300 -300 -176 0 -300 124 -300 300 0
176 124 300 300 300 58 0 87 -6 126 -24z"/>
<path d="M182 458 c-7 -7 -12 -20 -12 -29 0 -43 72 -53 78 -11 6 42 -37 69
-66 40z m48 -14 c11 -12 10 -18 -3 -32 -16 -15 -18 -15 -34 0 -13 14 -14 20
-3 32 7 9 16 16 20 16 4 0 13 -7 20 -16z"/>
<path d="M177 374 c-4 -4 -7 -52 -7 -106 l0 -98 40 0 41 0 -3 103 -3 102 -30
3 c-17 2 -34 0 -38 -4z m53 -104 c0 -83 -1 -90 -20 -90 -19 0 -20 7 -20 90 0
83 1 90 20 90 19 0 20 -7 20 -90z"/>
<path d="M270 274 l0 -104 35 0 35 0 0 58 c0 65 9 85 36 80 16 -3 19 -14 22
-71 l3 -67 34 0 35 0 0 83 c0 112 -13 125 -122 125 l-78 1 0 -105z m165 71
c22 -21 25 -33 25 -95 0 -68 -1 -70 -25 -70 -24 0 -25 2 -25 64 0 69 -14 92
-50 81 -27 -9 -26 10 2 29 31 22 45 20 73 -9z m-104 -7 c3 -13 3 -53 1 -90 -3
-59 -6 -68 -23 -68 -17 0 -19 8 -19 90 0 81 2 90 19 90 12 0 20 -8 22 -22z"/>
</g>
</svg>
