<?xml version="1.0" standalone="no"?>
<!DOCTYPE svg PUBLIC "-//W3C//DTD SVG 20010904//EN"
 "http://www.w3.org/TR/2001/REC-SVG-20010904/DTD/svg10.dtd">
<svg version="1.0" xmlns="http://www.w3.org/2000/svg"
 width="40.000000pt" height="40.000000pt" viewBox="0 0 512.000000 512.000000"
 preserveAspectRatio="xMidYMid meet">

<g transform="translate(0.000000,512.000000) scale(0.100000,-0.100000)"
fill="#000000" stroke="none">
<path d="M2445 4794 c-285 -46 -536 -242 -641 -502 -50 -124 -56 -167 -61
-394 l-5 -216 -167 -4 c-144 -3 -174 -7 -224 -27 -81 -32 -176 -122 -211 -201
-22 -49 -69 -293 -262 -1377 -265 -1484 -254 -1398 -190 -1529 43 -86 103
-144 194 -187 l67 -32 1615 0 1615 0 67 32 c91 43 151 101 193 187 65 130 75
43 -184 1501 -128 715 -237 1318 -242 1340 -30 112 -130 224 -236 266 -50 20
-80 24 -224 27 l-167 4 -5 216 c-5 227 -11 270 -61 394 -42 103 -89 171 -186
268 -77 78 -112 104 -185 142 -127 65 -215 88 -355 93 -63 2 -128 1 -145 -1z
m320 -189 c171 -57 302 -170 380 -328 61 -123 75 -203 75 -423 l0 -174 -660 0
-660 0 0 174 c0 219 14 300 75 422 89 180 246 303 450 350 93 21 242 12 340
-21z m-1025 -1245 l0 -160 -85 0 c-78 0 -88 -2 -110 -25 -16 -15 -25 -36 -25
-55 0 -19 9 -40 25 -55 23 -24 29 -25 165 -25 136 0 142 1 165 25 25 24 25 24
25 240 l0 215 660 0 660 0 0 -215 c0 -216 0 -216 25 -240 23 -24 29 -25 165
-25 136 0 142 1 165 25 33 32 33 78 0 110 -22 23 -32 25 -110 25 l-85 0 0 160
0 160 143 0 c154 -1 193 -9 253 -55 72 -55 66 -30 314 -1427 126 -713 230
-1309 230 -1324 0 -86 -83 -197 -166 -222 -60 -17 -3128 -17 -3188 0 -82 24
-165 135 -166 219 0 13 104 611 231 1329 170 960 237 1317 253 1349 25 51 77
96 132 116 26 9 87 14 182 15 l142 0 0 -160z"/>
</g>
</svg>
